<svg width="121" height="121" viewBox="0 0 121 121" fill="none" xmlns="http://www.w3.org/2000/svg">
<g id="Accesories">
<g id="Group">
<path id="Vector" d="M55.4577 100.203C59.2805 100.203 62.3906 97.093 62.3906 93.2702V54.1985C62.3906 50.3757 59.2805 47.2656 55.4577 47.2656H35.9219C21.3263 47.2656 9.45312 59.1388 9.45312 73.7344C9.45312 88.33 21.3263 100.203 35.9219 100.203H55.4577ZM13.2344 73.7344C13.2344 61.2241 23.4116 51.0469 35.9219 51.0469H55.4577C57.1952 51.0469 58.6094 52.4611 58.6094 54.1985V93.2721C58.6094 95.0077 57.1952 96.4219 55.4577 96.4219H35.9219C23.4116 96.4219 13.2344 86.2446 13.2344 73.7344Z" fill="#1A87C7"/>
<path id="Vector_2" d="M80.7448 1.89062C76.8558 1.89062 73.4111 4.22366 71.9666 7.83286L59.2068 39.7334C59.0083 39.722 58.8117 39.7031 58.6094 39.7031H35.9219C17.1574 39.7031 1.89062 54.9699 1.89062 73.7344C1.89062 91.2019 15.1231 105.622 32.0877 107.535L27.4575 119.109H119.109V1.89062H80.7448ZM115.328 75.625H102.094V5.67188H115.328V75.625ZM94.5312 5.67188H98.3125V75.625C98.3125 77.7104 100.008 79.4062 102.094 79.4062H115.328V83.1875H100.203C97.076 83.1875 94.5312 80.6427 94.5312 77.5156V5.67188ZM5.67188 73.7344C5.67188 57.0553 19.2428 43.4844 35.9219 43.4844H58.6094C62.7801 43.4844 66.1719 46.8762 66.1719 51.0469V68.0625V79.4062V96.4219C66.1719 100.593 62.7801 103.984 58.6094 103.984H35.9219C19.2428 103.984 5.67188 90.4135 5.67188 73.7344ZM69.9531 68.0625C69.9531 67.0208 70.802 66.1719 71.8438 66.1719C72.8855 66.1719 73.7344 67.0208 73.7344 68.0625V79.4062C73.7344 80.448 72.8855 81.2969 71.8438 81.2969C70.802 81.2969 69.9531 80.448 69.9531 79.4062V68.0625ZM33.0425 115.328L36.0675 107.766H58.6094C64.8655 107.766 69.9531 102.678 69.9531 96.4219V84.7303C70.5468 84.942 71.1783 85.0781 71.8438 85.0781C74.9708 85.0781 77.5156 82.5333 77.5156 79.4062V68.0625C77.5156 64.9354 74.9708 62.3906 71.8438 62.3906C71.1783 62.3906 70.5468 62.5267 69.9531 62.7385V51.0469C69.9531 46.3279 67.0548 42.2763 62.9465 40.569L75.4794 9.23759C76.3453 7.07094 78.4118 5.67188 80.7448 5.67188H90.75V77.5156C90.75 82.7281 94.9907 86.9688 100.203 86.9688H115.328V90.75H111.547V94.5312H115.328V115.328H33.0425Z" fill="#1A87C7"/>
<path id="Vector_3" d="M51.6006 57.2719L27.9983 80.8741L30.672 83.5479L54.2743 59.9456L51.6006 57.2719Z" fill="#1A87C7"/>
<path id="Vector_4" d="M25.6811 83.1918L23.2413 85.6315L25.915 88.3053L28.3548 85.8655L25.6811 83.1918Z" fill="#1A87C7"/>
<path id="Vector_5" d="M107.766 90.75H98.3125V94.5312H107.766V90.75Z" fill="#1A87C7"/>
</g>
</g>
</svg>
