<svg width="121" height="121" viewBox="0 0 121 121" fill="none" xmlns="http://www.w3.org/2000/svg">
<g id="Exhaust">
<g id="Group">
<path id="Vector" d="M49.1562 69.9531C42.9002 69.9531 37.8125 75.0408 37.8125 81.2969V85.0781H24.5781V75.625C24.5781 71.9024 18.4676 70.5827 13.2344 70.5827C8.00113 70.5827 1.89062 71.9024 1.89062 75.625V94.5312C1.89062 100.787 6.9783 105.875 13.2344 105.875H37.8125V107.766C37.8125 114.022 42.9002 119.109 49.1562 119.109H119.109V69.9531H49.1562ZM13.2344 74.364C16.8455 74.364 19.3392 75.0654 20.3904 75.625C19.3392 76.1846 16.8455 76.886 13.2344 76.886C9.62328 76.886 7.12955 76.1846 6.07836 75.625C7.12955 75.0654 9.62328 74.364 13.2344 74.364ZM13.2344 102.094C9.06366 102.094 5.67188 98.702 5.67188 94.5312V79.5651C7.8442 80.3421 10.6461 80.6673 13.2344 80.6673C15.8226 80.6673 18.6245 80.3421 20.7969 79.5651V85.0781C20.7969 87.1635 22.4928 88.8594 24.5781 88.8594H37.8125V102.094H13.2344ZM115.328 115.328H52.9375V111.547H49.1562V115.328C44.9855 115.328 41.5938 111.936 41.5938 107.766V81.2969C41.5938 77.1262 44.9855 73.7344 49.1562 73.7344V107.766H52.9375V73.7344H115.328V115.328Z" fill="#1A87C7"/>
<path id="Vector_2" d="M16.1705 67.864L17.8626 64.4817C17.7965 64.4476 11.3438 61.105 11.3438 51.0469C11.3438 41.4217 15.5844 39.6634 15.7224 39.6048L14.5257 36.0202C14.2421 36.1147 7.5625 38.4837 7.5625 51.0469C7.5625 63.4172 15.8189 67.6882 16.1705 67.864Z" fill="#1A87C7"/>
<path id="Vector_3" d="M15.9531 28.6865L17.0156 30.25L18.0649 31.823C18.3296 31.6453 24.5781 27.363 24.5781 17.0156C24.5781 6.32416 17.8985 3.97411 17.613 3.87958L16.4182 7.4642C16.4616 7.47933 20.7968 9.14497 20.7968 17.0156C20.7968 25.2474 16.1516 28.5503 15.9531 28.6865Z" fill="#1A87C7"/>
<path id="Vector_4" d="M21.3225 58.5772L24.9071 57.3805C24.8844 57.3124 22.6856 50.387 29.7981 43.2726C36.6025 36.4702 40.8469 38.2209 40.985 38.2795L42.6771 34.8972C42.4105 34.7648 36.0013 31.7209 27.1248 40.5993C18.3807 49.3491 21.1977 58.2048 21.3225 58.5772Z" fill="#1A87C7"/>
<path id="Vector_5" d="M63.2206 28.5674C70.7812 21.0067 67.7184 14.6221 67.5861 14.3536L64.1905 16.0174C64.2699 16.1932 66.0868 20.3545 60.5473 25.894C54.7317 31.7134 49.109 30.7643 48.8708 30.7227L48.1429 34.434C48.2336 34.4529 48.9067 34.5777 49.9938 34.5777C52.7106 34.5777 58.0006 33.7912 63.2206 28.5674Z" fill="#1A87C7"/>
<path id="Vector_6" d="M30.4485 57.7643L33.8308 59.4564C33.8648 59.3902 37.2075 52.9375 47.2656 52.9375C56.8908 52.9375 58.649 57.1782 58.7077 57.3162L62.2923 56.1194C62.1978 55.8358 59.8288 49.1562 47.2656 49.1562C34.8952 49.1562 30.6243 57.4126 30.4485 57.7643Z" fill="#1A87C7"/>
<path id="Vector_7" d="M81.2969 66.1719C91.9884 66.1719 94.3384 59.4923 94.4329 59.2068L90.8483 58.0101C90.8332 58.0555 89.1675 62.3907 81.2969 62.3907C73.0651 62.3907 69.7622 57.7454 69.626 57.5469L66.4895 59.6568C66.6672 59.9234 70.9495 66.1719 81.2969 66.1719Z" fill="#1A87C7"/>
<path id="Vector_8" d="M60.5 107.766H56.7188V111.547H60.5V107.766Z" fill="#1A87C7"/>
<path id="Vector_9" d="M111.547 107.766H64.2812V111.547H111.547V107.766Z" fill="#1A87C7"/>
</g>
</g>
</svg>
