<svg width="121" height="121" viewBox="0 0 121 121" fill="none" xmlns="http://www.w3.org/2000/svg">
<g id="Speed Improvement">
<g id="Group">
<path id="Vector" d="M60.5 2C28.1817 2 1.89062 28.2929 1.89062 60.6094C1.89062 66.2491 2.71872 71.8075 4.29361 77.1599C2.74897 80.7899 1.89062 84.781 1.89062 88.9688C1.89062 105.648 15.4615 119.219 32.1406 119.219C36.3284 119.219 40.3176 118.362 43.9476 116.816C49.3056 118.391 54.8622 119.219 60.5 119.219C92.8183 119.219 119.109 92.9258 119.109 60.6094C119.109 28.2929 92.8183 2 60.5 2ZM5.67188 88.9688C5.67188 74.3731 17.545 62.5 32.1406 62.5C46.7362 62.5 58.6094 74.3731 58.6094 88.9688C58.6094 103.564 46.7362 115.438 32.1406 115.438C17.545 115.438 5.67188 103.564 5.67188 88.9688ZM15.1515 62.5H17.5299C16.7301 62.9424 15.9493 63.4151 15.195 63.9255C15.176 63.4396 15.1628 62.9594 15.1515 62.5ZM58.6094 105.909C58.1481 105.89 57.6867 105.886 57.2273 105.854C57.7227 105.12 58.1783 104.358 58.6094 103.581V105.909ZM60.5 115.438C56.5543 115.438 52.652 114.997 48.8367 114.171C50.8956 112.802 52.7598 111.172 54.4254 109.355C56.4352 109.601 58.4657 109.766 60.5 109.766C78.0998 109.766 94.4632 100.263 103.207 84.9663L99.9252 83.0908C99.4091 83.9926 98.8627 84.8718 98.2917 85.7301L90.6725 80.1944L88.4491 83.2534L96.0494 88.774C93.862 91.5268 91.3815 93.9978 88.659 96.1512L83.144 88.5585L80.0869 90.7819L85.6056 98.3784C82.6997 100.307 79.5726 101.886 76.2981 103.107L73.3997 94.1888L69.8038 95.3572L72.7078 104.292C69.3727 105.228 65.9147 105.773 62.3906 105.92V96.5312H61.3943C62.022 94.1094 62.3906 91.5835 62.3906 88.9688C62.3906 72.2897 48.8197 58.7188 32.1406 58.7188C29.5259 58.7188 27 59.0874 24.5781 59.7151V58.7188H15.1723C15.3197 55.1587 15.8812 51.7064 16.8058 48.4016L25.7484 51.3075L26.9187 47.7115L17.9685 44.8019C19.1974 41.5046 20.8007 38.3889 22.7253 35.5019L30.3256 41.0244L32.549 37.9654L24.9581 32.4504C27.1286 29.7166 29.6072 27.238 32.341 25.0675L37.856 32.6603L40.9131 30.4369L35.3925 22.8366C38.2776 20.9119 41.3933 19.3087 44.6925 18.0798L47.6022 27.03L51.1981 25.8616L48.2922 16.917C51.5952 15.9925 55.0493 15.4291 58.6094 15.2816V24.6875H62.3906V15.2816C65.9507 15.4291 69.4048 15.9906 72.7078 16.9151L69.8 25.8597L73.396 27.0281L76.3056 18.0779C79.6029 19.3068 82.7186 20.91 85.6056 22.8347L80.085 30.435L83.1421 32.6584L88.6571 25.0656C91.3909 27.2361 93.8695 29.7128 96.04 32.4485L88.4491 37.9635L90.6725 41.0225L98.2728 35.5C100.197 38.3851 101.801 41.5008 103.03 44.8L94.0794 47.7096L95.2497 51.3056L104.192 48.3997C105.117 51.7045 105.68 55.1568 105.826 58.7169H96.4219V62.4981H105.826C105.682 66.0222 105.147 69.4726 104.211 72.8228L95.2497 69.9094L94.0794 73.5053L103.033 76.415C102.655 77.4284 102.254 78.4323 101.803 79.423L105.24 80.9941C108.17 74.5811 109.656 67.7219 109.656 60.6094C109.656 33.5054 87.6059 11.4531 60.5 11.4531C33.3941 11.4531 11.3438 33.5054 11.3438 60.6094C11.3438 62.1918 11.4175 64.8557 11.5574 66.8636C9.81991 68.4838 8.25825 70.2875 6.93859 72.2726C6.11239 68.4592 5.67188 64.557 5.67188 60.6094C5.67188 30.3764 30.2689 5.78125 60.5 5.78125C90.7311 5.78125 115.328 30.3764 115.328 60.6094C115.328 90.8424 90.7311 115.438 60.5 115.438Z" fill="#1A87C7"/>
<path id="Vector_2" d="M64.3172 54.1189C63.1923 53.4534 61.8991 53.0469 60.5 53.0469C56.3293 53.0469 52.9375 56.4387 52.9375 60.6094C52.9375 64.7801 56.3293 68.1719 60.5 68.1719C64.6707 68.1719 68.0625 64.7801 68.0625 60.6094C68.0625 59.2103 67.656 57.9171 66.9905 56.7922L84.5242 39.2586L81.8508 36.5852L64.3172 54.1189ZM60.5 64.3906C58.4146 64.3906 56.7187 62.6947 56.7187 60.6094C56.7187 58.524 58.4146 56.8281 60.5 56.8281C62.5854 56.8281 64.2812 58.524 64.2812 60.6094C64.2812 62.6947 62.5854 64.3906 60.5 64.3906Z" fill="#1A87C7"/>
<path id="Vector_3" d="M32.1406 66.2812C19.6304 66.2812 9.45312 76.4585 9.45312 88.9688C9.45312 101.479 19.6304 111.656 32.1406 111.656C44.6509 111.656 54.8281 101.479 54.8281 88.9688C54.8281 76.4585 44.6509 66.2812 32.1406 66.2812ZM44.7095 103.052L41.4482 98.5637L38.391 100.787L41.6561 105.279C39.3723 106.618 36.7935 107.503 34.0331 107.779V102.203H30.2519V107.779C27.4897 107.503 24.9128 106.616 22.6289 105.279L25.894 100.787L22.8369 98.5637L19.5755 103.052C17.5734 101.263 15.9493 99.0647 14.849 96.5747L20.1408 94.8543L18.9743 91.2583L13.6768 92.9807C13.3913 91.6875 13.2344 90.347 13.2344 88.9688C13.2344 87.5905 13.3913 86.25 13.673 84.955L18.9705 86.6773L20.137 83.0813L14.8452 81.3609C15.9436 78.8728 17.5677 76.674 19.5718 74.8836L22.8331 79.3719L25.8902 77.1486L22.6251 72.6564C24.909 71.3179 27.4878 70.4331 30.2481 70.157V75.7344H34.0294V70.1589C36.7916 70.435 39.3685 71.3217 41.6524 72.6583L38.3873 77.1505L41.4444 79.3738L44.7057 74.8855C46.7079 76.674 48.3338 78.8728 49.4323 81.3628L44.1404 83.0832L45.3069 86.6792L50.6045 84.9568C50.89 86.25 51.0469 87.5905 51.0469 88.9688C51.0469 90.347 50.89 91.6875 50.6082 92.9825L45.3107 91.2602L44.1442 94.8562L49.4361 96.5766C48.3357 99.0647 46.7117 101.263 44.7095 103.052Z" fill="#1A87C7"/>
<path id="Vector_4" d="M32.1406 85.1875C31.9894 85.1875 31.8476 85.2139 31.702 85.231L27.9812 80.2719L24.9562 82.5406L28.6638 87.4846C28.469 87.9402 28.3594 88.4412 28.3594 88.9687C28.3594 91.0541 30.0553 92.75 32.1406 92.75C34.226 92.75 35.9219 91.0541 35.9219 88.9687C35.9219 86.8834 34.226 85.1875 32.1406 85.1875Z" fill="#1A87C7"/>
</g>
</g>
</svg>
